<svg xmlns="http://www.w3.org/2000/svg" width="26.104" height="26.101" viewBox="0 0 26.104 26.101"><path d="M137.647,112.163a.9.9,0,0,1,.392.93l-3.729,22.372a.928.928,0,0,1-.467.656.917.917,0,0,1-.45.117.962.962,0,0,1-.349-.075l-6.6-2.695-3.527,4.3a.856.856,0,0,1-.715.333.816.816,0,0,1-.323-.059.94.94,0,0,1-.613-.874v-5.08l12.584-15.426-15.569,13.475-5.752-2.359a.847.847,0,0,1-.581-.8.864.864,0,0,1,.467-.861l24.235-13.984a.885.885,0,0,1,.467-.13A.913.913,0,0,1,137.647,112.163Z" transform="translate(-111.949 -112)"/></svg>