<svg xmlns="http://www.w3.org/2000/svg" width="23.37" height="25.895" viewBox="0 0 23.37 25.895"><path d="M70.477,0A2.839,2.839,0,0,1,73.29,2.67V25.9L70.4,23.443,68.815,22l-1.731-1.508.723,2.379H52.661A2.678,2.678,0,0,1,49.92,20.2V2.676A2.732,2.732,0,0,1,52.666,0h17.8Zm-6.6,6.132h-.032l-.218.216a8.692,8.692,0,0,1,3.319,1.658A11.737,11.737,0,0,0,62.9,6.779a11.093,11.093,0,0,0-2.67,0h-.216a9.62,9.62,0,0,0-3.032.793c-.5.219-.793.363-.793.363a7.7,7.7,0,0,1,3.464-1.658l-.146-.146A6.483,6.483,0,0,0,55.759,7.5a16.887,16.887,0,0,0-1.948,7.574,4.708,4.708,0,0,0,4.039,1.949s.432-.575.869-1.081a4.269,4.269,0,0,1-2.309-1.515,3.579,3.579,0,0,1,.361.216h.065a.086.086,0,0,1,.065.032v.006a.083.083,0,0,0,.065.032c.356.147.712.291,1,.432a8.826,8.826,0,0,0,1.942.578,11.082,11.082,0,0,0,3.464,0,9.972,9.972,0,0,0,1.942-.577,15.565,15.565,0,0,0,1.507-.8,4.288,4.288,0,0,1-2.379,1.515c.356.5.858,1.079.858,1.079a5.632,5.632,0,0,0,4.176-1.862A16.852,16.852,0,0,0,67.52,7.51a6.489,6.489,0,0,0-3.706-1.36l.06-.022Zm.181,4.762a1.445,1.445,0,1,1-1.37,1.447,1.407,1.407,0,0,1,1.37-1.447Zm-4.9,0A1.445,1.445,0,1,1,57.78,12.34a1.406,1.406,0,0,1,1.375-1.447Z" transform="translate(-49.92)"/></svg>