<svg xmlns="http://www.w3.org/2000/svg" width="27.104" height="25.895" viewBox="0 0 27.104 25.895"><path d="M56.219,42.643a13.244,13.244,0,0,0-4.287,25.872c.678.123.924-.283.924-.641V65.62c-3.77.8-4.571-1.774-4.571-1.774a3.524,3.524,0,0,0-1.5-1.947c-1.232-.813.1-.8.1-.8a2.846,2.846,0,0,1,2.07,1.368,2.92,2.92,0,0,0,3.942,1.1,2.871,2.871,0,0,1,.862-1.774c-3.006-.333-6.16-1.466-6.16-6.554a5.113,5.113,0,0,1,1.368-3.585,4.657,4.657,0,0,1,.136-3.5s1.146-.357,3.7,1.355a13.158,13.158,0,0,1,6.776,0c2.587-1.712,3.7-1.355,3.7-1.355a4.657,4.657,0,0,1,.136,3.5,5.113,5.113,0,0,1,1.441,3.561c0,5.1-3.179,6.222-6.16,6.554a3.08,3.08,0,0,1,.924,2.464v3.634c0,.431.246.776.924.641a13.241,13.241,0,0,0-4.312-25.86" transform="translate(-42.667 -42.642)"/></svg>