<svg xmlns="http://www.w3.org/2000/svg" width="12.516" height="13.113" viewBox="0 0 12.516 13.113"><path d="M64.937,57.148l4.03,4a.985.985,0,0,1,0,1.4l-4.626,4.592h3.494a.729.729,0,0,1,.636.354l.929,2.122c.086.2-.1.354-.426.354H57.35c-.321,0-.512-.159-.426-.354l.929-2.122a.729.729,0,0,1,.636-.353H60.9l-3.013-2.992a.986.986,0,0,1,0-1.4l5.642-5.6a1,1,0,0,1,1.41,0ZM66.5,68.123H59.824a.417.417,0,1,0,0,.834H66.5a.417.417,0,1,0,0-.834Zm-1.335-6.832L62.78,63.748l-.857-.884a.4.4,0,0,0-.4-.12.411.411,0,0,0-.292.3.426.426,0,0,0,.117.409L62.5,64.632a.4.4,0,0,0,.572,0l2.668-2.752a.426.426,0,0,0-.01-.579.4.4,0,0,0-.562-.011Z" transform="translate(-56.904 -56.858)"/></svg>