<svg xmlns="http://www.w3.org/2000/svg" width="17.073" height="17.086" viewBox="0 0 17.073 17.086"><defs><style>.a{fill:#00a2ff;}</style></defs><path class="a" d="M16.674,7.664,14.916,5.906V3.489A1.27,1.27,0,0,0,13.6,2.17H11.73a1,1,0,0,1-.879-.44L9.532.412a1.265,1.265,0,0,0-1.868,0L6.346,1.731a1.974,1.974,0,0,1-.989.44H3.489A1.27,1.27,0,0,0,2.17,3.489V5.357a1,1,0,0,1-.44.879L.412,7.664a1.265,1.265,0,0,0,0,1.868l1.319,1.319a1.356,1.356,0,0,1,.44.879V13.6a1.27,1.27,0,0,0,1.319,1.319H5.357a1,1,0,0,1,.879.44l1.319,1.319a1.265,1.265,0,0,0,1.868,0l1.319-1.319a1.356,1.356,0,0,1,.879-.44h1.868A1.27,1.27,0,0,0,14.806,13.6V11.73a1,1,0,0,1,.44-.879l1.319-1.319A1.194,1.194,0,0,0,16.674,7.664Zm-8.131,4.4-3.3-7.032H6.895L8.543,8.653l1.648-3.626H11.84Z"/></svg>