<svg xmlns="http://www.w3.org/2000/svg" width="27.417" height="27.417" viewBox="0 0 27.417 27.417"><defs><style>.a{opacity:0.21;}</style></defs><path class="a" d="M99.041,112.75A13.708,13.708,0,1,1,112.75,99.042,13.708,13.708,0,0,1,99.041,112.75Zm-3.14-3.2a24.538,24.538,0,0,1-2.307-9.139H88.161a10.978,10.978,0,0,0,7.743,9.139Zm.439-9.139a21.822,21.822,0,0,0,2.7,9.256,21.8,21.8,0,0,0,2.7-9.256h-5.4Zm13.582,0h-5.434a24.538,24.538,0,0,1-2.309,9.139A10.978,10.978,0,0,0,109.922,100.413ZM88.161,97.671h5.434A24.548,24.548,0,0,1,95.9,88.532a10.978,10.978,0,0,0-7.744,9.139Zm8.181,0h5.4a21.8,21.8,0,0,0-2.7-9.256,21.8,21.8,0,0,0-2.7,9.256h0Zm5.838-9.139a24.538,24.538,0,0,1,2.309,9.139h5.434a10.978,10.978,0,0,0-7.743-9.139Z" transform="translate(-85.333 -85.333)"/></svg>