<svg xmlns="http://www.w3.org/2000/svg" width="38.114" height="38.114" viewBox="0 0 38.114 38.114"><defs><style>.a{fill:#fff;}.b{opacity:0.2;}</style></defs><g transform="translate(-897.79 -1944.5)"><circle class="a" cx="19.057" cy="19.057" r="19.057" transform="translate(897.79 1944.5)"/><path class="b" d="M17.546,14.192q.4,1.856.7,3.36.141.634.258,1.269t.223,1.151q.106.517.176.881t.094.458q.07.47-.211.623a1.31,1.31,0,0,1-.634.153,1.088,1.088,0,0,1-.341-.082q-.223-.082-.341-.129L11.342,18.3q-1.668.987-3.031,1.762-.587.329-1.163.658T6.1,21.336q-.47.282-.811.47t-.458.235a.8.8,0,0,1-.482.082,1.011,1.011,0,0,1-.446-.176.868.868,0,0,1-.294-.341.623.623,0,0,1-.047-.411q.023-.094.117-.458t.211-.869q.117-.505.27-1.116t.317-1.245q.352-1.457.8-3.29-1.386-1.2-2.491-2.138l-.928-.787q-.458-.388-.822-.7t-.6-.517Q.2,9.869.181,9.845A2.808,2.808,0,0,1-.3,9.27a.937.937,0,0,1-.153-.646.819.819,0,0,1,.258-.517.956.956,0,0,1,.47-.235l7.261-.658,2.7-6.3a1.874,1.874,0,0,1,.4-.646.929.929,0,0,1,.7-.27.784.784,0,0,1,.411.106,1.143,1.143,0,0,1,.294.247,2.078,2.078,0,0,1,.2.282q.082.141.129.235l2.632,6.3,7.261.681a1.634,1.634,0,0,1,.658.282.652.652,0,0,1,.188.517.888.888,0,0,1-.2.576q-.2.247-.505.6Z" transform="translate(905.253 1952.5)"/></g></svg>