<svg xmlns="http://www.w3.org/2000/svg" width="26.104" height="26.104" viewBox="0 0 26.104 26.104"><defs><style>.a{opacity:0.21;}</style></defs><path class="a" d="M26.1,13.052A13.052,13.052,0,1,0,13.052,26.1,13.052,13.052,0,0,0,26.1,13.052ZM6.024,17.69a5.5,5.5,0,0,0,.688.044,5.567,5.567,0,0,0,3.581-1.3A2.928,2.928,0,0,1,7.6,14.283a2.694,2.694,0,0,0,1.3-.044A3.064,3.064,0,0,1,6.588,11.2v-.039a2.76,2.76,0,0,0,1.306.4A3.234,3.234,0,0,1,7,7.445a8.132,8.132,0,0,0,5.943,3.284,3.212,3.212,0,0,1-.075-.7,2.914,2.914,0,0,1,2.883-3.005,2.869,2.869,0,0,1,2.1.993,5.518,5.518,0,0,0,1.831-.706,2.955,2.955,0,0,1-1.268,1.656,5.493,5.493,0,0,0,1.656-.453,5.928,5.928,0,0,1-1.439,1.547c.006.131.008.261.008.392,0,4-2.9,8.62-8.2,8.618A7.765,7.765,0,0,1,6.024,17.69Z"/></svg>