<svg xmlns="http://www.w3.org/2000/svg" width="32.812" height="25" viewBox="0 0 32.812 25"><defs><style>.a{fill:#dbcf90;}</style></defs><path class="a" d="M79.82,66.11a.084.084,0,0,0-.043-.039A27.068,27.068,0,0,0,73.1,64a.1.1,0,0,0-.107.051,18.831,18.831,0,0,0-.831,1.708,24.991,24.991,0,0,0-7.5,0,17.273,17.273,0,0,0-.845-1.708A.105.105,0,0,0,63.706,64a26.992,26.992,0,0,0-6.679,2.071.1.1,0,0,0-.044.038,27.673,27.673,0,0,0-4.847,18.669.112.112,0,0,0,.043.077,27.213,27.213,0,0,0,8.193,4.14.106.106,0,0,0,.115-.038,19.431,19.431,0,0,0,1.676-2.726.1.1,0,0,0-.057-.144,17.923,17.923,0,0,1-2.56-1.219.105.105,0,0,1-.01-.174q.259-.193.508-.4a.1.1,0,0,1,.106-.014,19.411,19.411,0,0,0,16.49,0,.1.1,0,0,1,.107.013q.25.206.51.4a.105.105,0,0,1-.009.174,16.82,16.82,0,0,1-2.561,1.218.1.1,0,0,0-.056.146,21.822,21.822,0,0,0,1.675,2.724.1.1,0,0,0,.115.039,27.123,27.123,0,0,0,8.207-4.14.105.105,0,0,0,.043-.075A27.49,27.49,0,0,0,79.82,66.11ZM62.965,81.051a3.327,3.327,0,0,1,0-6.612,3.327,3.327,0,0,1,0,6.612Zm10.9,0a3.327,3.327,0,0,1,0-6.612,3.327,3.327,0,0,1,0,6.612Z" transform="translate(-52 -63.999)"/></svg>